GIL04_free3_RRA_states
nRows=4
nColumns=47

# SIMM Motion File Header:
name GIL04_free3_RRA_states
datacolumns 47
datarows 4
otherdata 1
range 0.35233000000000020000 0.35383000000000020000
endheader
time	pelvis_tx	pelvis_ty	pelvis_tz	pelvis_tilt	pelvis_list	pelvis_rotation	hip_flexion_r	hip_adduction_r	hip_rotation_r	knee_angle_r	ankle_angle_r	subtalar_angle_r	mtp_angle_r	hip_flexion_l	hip_adduction_l	hip_rotation_l	knee_angle_l	ankle_angle_l	subtalar_angle_l	mtp_angle_l	lumbar_extension	lumbar_bending	lumbar_rotation	pelvis_tx_u	pelvis_ty_u	pelvis_tz_u	pelvis_tilt_u	pelvis_list_u	pelvis_rotation_u	hip_flexion_r_u	hip_adduction_r_u	hip_rotation_r_u	knee_angle_r_u	ankle_angle_r_u	subtalar_angle_r_u	mtp_angle_r_u	hip_flexion_l_u	hip_adduction_l_u	hip_rotation_l_u	knee_angle_l_u	ankle_angle_l_u	subtalar_angle_l_u	mtp_angle_l_u	lumbar_extension_u	lumbar_bending_u	lumbar_rotation_u
      0.35233000000000020000	      1.39422835729348620000	      0.74540417083904886000	     -0.20718319075703104000	     -1.88370906581827250000	      0.35903821535067731000	      2.65671668552999800000	     30.84129416064681500000	     -1.40594243849424670000	      0.05463486916481259700	    -47.17911695594187200000	      2.55492303389363460000	      0.00000000000000437579	     -0.00000000000001733634	     -1.59720107408751640000	      5.87480878985923200000	     -2.86124074532663200000	     -7.13195998525243710000	      7.14101619620650930000	      0.00000000000005143517	      0.00000000000004197236	     -3.62663017313133200000	     -2.09342015847140850000	      3.30078476143674000000	      0.98490125576008158000	     -0.08752000390693351300	      0.03633310499912931900	      4.95214033187934710000	    -12.87397100985165300000	     15.07412526796889900000	     54.75426622433872100000	     16.32039046890425000000	    -62.90278323286750600000	    318.83094056563283000000	     44.62522198583859300000	      0.00000000000002547917	     -0.00000000000009162644	   -144.41150764313412000000	    -12.99476682545555500000	    -30.10724993823087600000	    103.38473951258850000000	      7.25078299922066090000	      0.00000000000031337590	      0.00000000000048261503	     -9.93914176239610110000	      6.87182997254146160000	     -9.77838080321920700000
      0.35283000000000020000	      1.39472090191170880000	      0.74535999937648645000	     -0.20716506518192923000	     -1.88127075788057300000	      0.35261379900990614000	      2.66429046500398360000	     30.86854450407688700000	     -1.39783516058406930000	      0.02303877390308713800	    -47.01945781577015300000	      2.57712305457448830000	      0.00000000000000438821	     -0.00000000000001738239	     -1.66931347392685740000	      5.86831441466945590000	     -2.87629553696991950000	     -7.08040316151981930000	      7.14468557135318960000	      0.00000000000005159002	      0.00000000000004221355	     -3.63153151890871540000	     -2.08999114575054050000	      3.29582107501140700000	      0.98527797598472733000	     -0.08916550340872951600	      0.03616811435331057600	      4.80104794987330230000	    -12.82345801305318000000	     15.22105139195184600000	     54.24698557977613700000	     16.10866329143441100000	    -63.48025007011619900000	    319.80523949148181000000	     44.17394647789849000000	      0.00000000000002428201	     -0.00000000000009106404	   -144.03798117274434000000	    -12.98266235288563300000	    -30.11155697930318500000	    102.84223667778119000000	      7.42681806553665340000	      0.00000000000032620280	      0.00000000000045794002	     -9.66608291722669580000	      6.84433539769614270000	    -10.07684478469572800000
      0.35333000000000020000	      1.39521363602400820000	      0.74531500567259301000	     -0.20714702372955660000	     -1.87890806624318360000	      0.34621499647861231000	      2.67193779916123650000	     30.89554103224389800000	     -1.38983383619066840000	     -0.00884402422734576090	    -46.85931210347142400000	      2.59909606990399270000	      0.00000000000000440007	     -0.00000000000001742794	     -1.74123893259697280000	      5.86182620683376500000	     -2.89135193500938570000	     -7.02911808547974730000	      7.14844318089770250000	      0.00000000000005176301	      0.00000000000004243274	     -3.63629609271869600000	     -2.08657571183321980000	      3.29070743299299150000	      0.98565922296915898000	     -0.09080897919297778500	      0.03599660262189204000	      4.64966550157384880000	    -12.77151023193938300000	     15.36835074664370100000	     53.73902168775546800000	     15.89657044143128300000	    -64.04957603183788700000	    320.77721505740573000000	     43.71720876751889800000	      0.00000000000002403931	     -0.00000000000009138826	   -143.66371920786838000000	    -12.97008189036490600000	    -30.11366015324798400000	    102.29771322216200000000	      7.60385270872066070000	      0.00000000000035502381	      0.00000000000047158935	     -9.39204442369776340000	      6.81750830355028010000	    -10.37821032791817200000
      0.35383000000000020000	      1.39570656188260080000	      0.74526919074870723000	     -0.20712906964176694000	     -1.87662113480322270000	      0.33984253205972476000	      2.67965887329979460000	     30.92228341494375600000	     -1.38193865066062240000	     -0.04100945440285122500	    -46.69868099737993800000	      2.62083935581401350000	      0.00000000000000441228	     -0.00000000000001747394	     -1.81297708654205490000	      5.85534441728520250000	     -2.90640882360668180000	     -6.97810576583419810000	      7.15228958200254810000	      0.00000000000005194500	      0.00000000000004266214	     -3.64092341119447040000	     -2.08317353831916470000	      3.28544240330243390000	      0.98604495703053952000	     -0.09245034451447135800	      0.03581871620106441600	      4.49802870400460720000	    -12.71810285950072800000	     15.51599530665303600000	     53.23039346031158900000	     15.68411471607501400000	    -64.61081522930740600000	    321.74680942541102000000	     43.25502646494850000000	      0.00000000000002408105	     -0.00000000000009276368	   -143.28881817822648000000	    -12.95699437454182300000	    -30.11352196572435600000	    101.75128533515016000000	      7.78183473241815180000	      0.00000000000037257487	      0.00000000000045061493	     -9.11709345219432170000	      6.79127606278192620000	    -10.68234386956911700000
